<?xml version="1.0" encoding="UTF-8"?>
<svg width="804" height="144" viewBox="0 0 804 144" xmlns="http://www.w3.org/2000/svg">
  <rect width="804" height="144" fill="#1a1b26"/>
  <text x="10" y="20" font-family="JetBrains Mono, monospace" font-size="12" font-weight="bold" fill="#c0caf5">Contribution Heatmap (Last 53 Weeks)</text>
<text x="15" y="35" font-family="JetBrains Mono, monospace" font-size="8" fill="#a9b1d6" text-anchor="end">Mon</text>
<text x="15" y="51" font-family="JetBrains Mono, monospace" font-size="8" fill="#a9b1d6" text-anchor="end">Tue</text>
<text x="15" y="67" font-family="JetBrains Mono, monospace" font-size="8" fill="#a9b1d6" text-anchor="end">Wed</text>
<text x="15" y="83" font-family="JetBrains Mono, monospace" font-size="8" fill="#a9b1d6" text-anchor="end">Thu</text>
<text x="15" y="99" font-family="JetBrains Mono, monospace" font-size="8" fill="#a9b1d6" text-anchor="end">Fri</text>
<text x="15" y="115" font-family="JetBrains Mono, monospace" font-size="8" fill="#a9b1d6" text-anchor="end">Sat</text>
<text x="15" y="131" font-family="JetBrains Mono, monospace" font-size="8" fill="#a9b1d6" text-anchor="end">Sun</text>
<text x="22" y="20" font-family="JetBrains Mono, monospace" font-size="8" fill="#a9b1d6" text-anchor="middle">Aug</text>
<text x="78" y="20" font-family="JetBrains Mono, monospace" font-size="8" fill="#a9b1d6" text-anchor="middle">Sep</text>
<text x="148" y="20" font-family="JetBrains Mono, monospace" font-size="8" fill="#a9b1d6" text-anchor="middle">Oct</text>
<text x="204" y="20" font-family="JetBrains Mono, monospace" font-size="8" fill="#a9b1d6" text-anchor="middle">Nov</text>
<text x="260" y="20" font-family="JetBrains Mono, monospace" font-size="8" fill="#a9b1d6" text-anchor="middle">Dec</text>
<text x="330" y="20" font-family="JetBrains Mono, monospace" font-size="8" fill="#a9b1d6" text-anchor="middle">Jan</text>
<text x="386" y="20" font-family="JetBrains Mono, monospace" font-size="8" fill="#a9b1d6" text-anchor="middle">Feb</text>
<text x="442" y="20" font-family="JetBrains Mono, monospace" font-size="8" fill="#a9b1d6" text-anchor="middle">Mar</text>
<text x="512" y="20" font-family="JetBrains Mono, monospace" font-size="8" fill="#a9b1d6" text-anchor="middle">Apr</text>
<text x="568" y="20" font-family="JetBrains Mono, monospace" font-size="8" fill="#a9b1d6" text-anchor="middle">May</text>
<text x="624" y="20" font-family="JetBrains Mono, monospace" font-size="8" fill="#a9b1d6" text-anchor="middle">Jun</text>
<text x="694" y="20" font-family="JetBrains Mono, monospace" font-size="8" fill="#a9b1d6" text-anchor="middle">Jul</text>
<text x="750" y="20" font-family="JetBrains Mono, monospace" font-size="8" fill="#a9b1d6" text-anchor="middle">Aug</text>
<rect x="22" y="25" width="11" height="11" fill="#161b22" rx="2"/>
<rect x="22" y="41" width="11" height="11" fill="#161b22" rx="2"/>
<rect x="22" y="57" width="11" height="11" fill="#161b22" rx="2"/>
<rect x="22" y="73" width="11" height="11" fill="#161b22" rx="2"/>
<rect x="22" y="89" width="11" height="11" fill="#161b22" rx="2"/>
<rect x="22" y="105" width="11" height="11" fill="#161b22" rx="2"/>
<rect x="22" y="121" width="11" height="11" fill="#161b22" rx="2"/>
<rect x="36" y="25" width="11" height="11" fill="#161b22" rx="2"/>
<rect x="36" y="41" width="11" height="11" fill="#161b22" rx="2"/>
<rect x="36" y="57" width="11" height="11" fill="#161b22" rx="2"/>
<rect x="36" y="73" width="11" height="11" fill="#161b22" rx="2"/>
<rect x="36" y="89" width="11" height="11" fill="#161b22" rx="2"/>
<rect x="36" y="105" width="11" height="11" fill="#161b22" rx="2"/>
<rect x="36" y="121" width="11" height="11" fill="#161b22" rx="2"/>
<rect x="50" y="25" width="11" height="11" fill="#161b22" rx="2"/>
<rect x="50" y="41" width="11" height="11" fill="#161b22" rx="2"/>
<rect x="50" y="57" width="11" height="11" fill="#161b22" rx="2"/>
<rect x="50" y="73" width="11" height="11" fill="#161b22" rx="2"/>
<rect x="50" y="89" width="11" height="11" fill="#161b22" rx="2"/>
<rect x="50" y="105" width="11" height="11" fill="#161b22" rx="2"/>
<rect x="50" y="121" width="11" height="11" fill="#161b22" rx="2"/>
<rect x="64" y="25" width="11" height="11" fill="#161b22" rx="2"/>
<rect x="64" y="41" width="11" height="11" fill="#161b22" rx="2"/>
<rect x="64" y="57" width="11" height="11" fill="#161b22" rx="2"/>
<rect x="64" y="73" width="11" height="11" fill="#161b22" rx="2"/>
<rect x="64" y="89" width="11" height="11" fill="#161b22" rx="2"/>
<rect x="64" y="105" width="11" height="11" fill="#161b22" rx="2"/>
<rect x="64" y="121" width="11" height="11" fill="#161b22" rx="2"/>
<rect x="78" y="25" width="11" height="11" fill="#161b22" rx="2"/>
<rect x="78" y="41" width="11" height="11" fill="#161b22" rx="2"/>
<rect x="78" y="57" width="11" height="11" fill="#161b22" rx="2"/>
<rect x="78" y="73" width="11" height="11" fill="#161b22" rx="2"/>
<rect x="78" y="89" width="11" height="11" fill="#161b22" rx="2"/>
<rect x="78" y="105" width="11" height="11" fill="#161b22" rx="2"/>
<rect x="78" y="121" width="11" height="11" fill="#161b22" rx="2"/>
<rect x="92" y="25" width="11" height="11" fill="#161b22" rx="2"/>
<rect x="92" y="41" width="11" height="11" fill="#161b22" rx="2"/>
<rect x="92" y="57" width="11" height="11" fill="#161b22" rx="2"/>
<rect x="92" y="73" width="11" height="11" fill="#161b22" rx="2"/>
<rect x="92" y="89" width="11" height="11" fill="#161b22" rx="2"/>
<rect x="92" y="105" width="11" height="11" fill="#161b22" rx="2"/>
<rect x="92" y="121" width="11" height="11" fill="#161b22" rx="2"/>
<rect x="106" y="25" width="11" height="11" fill="#161b22" rx="2"/>
<rect x="106" y="41" width="11" height="11" fill="#161b22" rx="2"/>
<rect x="106" y="57" width="11" height="11" fill="#161b22" rx="2"/>
<rect x="106" y="73" width="11" height="11" fill="#161b22" rx="2"/>
<rect x="106" y="89" width="11" height="11" fill="#161b22" rx="2"/>
<rect x="106" y="105" width="11" height="11" fill="#161b22" rx="2"/>
<rect x="106" y="121" width="11" height="11" fill="#26a641" rx="2"/>
<rect x="120" y="25" width="11" height="11" fill="#006d32" rx="2"/>
<rect x="120" y="41" width="11" height="11" fill="#161b22" rx="2"/>
<rect x="120" y="57" width="11" height="11" fill="#161b22" rx="2"/>
<rect x="120" y="73" width="11" height="11" fill="#161b22" rx="2"/>
<rect x="120" y="89" width="11" height="11" fill="#161b22" rx="2"/>
<rect x="120" y="105" width="11" height="11" fill="#161b22" rx="2"/>
<rect x="120" y="121" width="11" height="11" fill="#006d32" rx="2"/>
<rect x="134" y="25" width="11" height="11" fill="#161b22" rx="2"/>
<rect x="134" y="41" width="11" height="11" fill="#161b22" rx="2"/>
<rect x="134" y="57" width="11" height="11" fill="#161b22" rx="2"/>
<rect x="134" y="73" width="11" height="11" fill="#161b22" rx="2"/>
<rect x="134" y="89" width="11" height="11" fill="#161b22" rx="2"/>
<rect x="134" y="105" width="11" height="11" fill="#161b22" rx="2"/>
<rect x="134" y="121" width="11" height="11" fill="#161b22" rx="2"/>
<rect x="148" y="25" width="11" height="11" fill="#161b22" rx="2"/>
<rect x="148" y="41" width="11" height="11" fill="#161b22" rx="2"/>
<rect x="148" y="57" width="11" height="11" fill="#161b22" rx="2"/>
<rect x="148" y="73" width="11" height="11" fill="#161b22" rx="2"/>
<rect x="148" y="89" width="11" height="11" fill="#161b22" rx="2"/>
<rect x="148" y="105" width="11" height="11" fill="#161b22" rx="2"/>
<rect x="148" y="121" width="11" height="11" fill="#161b22" rx="2"/>
<rect x="162" y="25" width="11" height="11" fill="#161b22" rx="2"/>
<rect x="162" y="41" width="11" height="11" fill="#161b22" rx="2"/>
<rect x="162" y="57" width="11" height="11" fill="#161b22" rx="2"/>
<rect x="162" y="73" width="11" height="11" fill="#161b22" rx="2"/>
<rect x="162" y="89" width="11" height="11" fill="#161b22" rx="2"/>
<rect x="162" y="105" width="11" height="11" fill="#161b22" rx="2"/>
<rect x="162" y="121" width="11" height="11" fill="#161b22" rx="2"/>
<rect x="176" y="25" width="11" height="11" fill="#161b22" rx="2"/>
<rect x="176" y="41" width="11" height="11" fill="#161b22" rx="2"/>
<rect x="176" y="57" width="11" height="11" fill="#161b22" rx="2"/>
<rect x="176" y="73" width="11" height="11" fill="#161b22" rx="2"/>
<rect x="176" y="89" width="11" height="11" fill="#161b22" rx="2"/>
<rect x="176" y="105" width="11" height="11" fill="#006d32" rx="2"/>
<rect x="176" y="121" width="11" height="11" fill="#006d32" rx="2"/>
<rect x="190" y="25" width="11" height="11" fill="#161b22" rx="2"/>
<rect x="190" y="41" width="11" height="11" fill="#161b22" rx="2"/>
<rect x="190" y="57" width="11" height="11" fill="#161b22" rx="2"/>
<rect x="190" y="73" width="11" height="11" fill="#161b22" rx="2"/>
<rect x="190" y="89" width="11" height="11" fill="#161b22" rx="2"/>
<rect x="190" y="105" width="11" height="11" fill="#161b22" rx="2"/>
<rect x="190" y="121" width="11" height="11" fill="#161b22" rx="2"/>
<rect x="204" y="25" width="11" height="11" fill="#161b22" rx="2"/>
<rect x="204" y="41" width="11" height="11" fill="#161b22" rx="2"/>
<rect x="204" y="57" width="11" height="11" fill="#161b22" rx="2"/>
<rect x="204" y="73" width="11" height="11" fill="#161b22" rx="2"/>
<rect x="204" y="89" width="11" height="11" fill="#161b22" rx="2"/>
<rect x="204" y="105" width="11" height="11" fill="#161b22" rx="2"/>
<rect x="204" y="121" width="11" height="11" fill="#161b22" rx="2"/>
<rect x="218" y="25" width="11" height="11" fill="#161b22" rx="2"/>
<rect x="218" y="41" width="11" height="11" fill="#161b22" rx="2"/>
<rect x="218" y="57" width="11" height="11" fill="#161b22" rx="2"/>
<rect x="218" y="73" width="11" height="11" fill="#161b22" rx="2"/>
<rect x="218" y="89" width="11" height="11" fill="#161b22" rx="2"/>
<rect x="218" y="105" width="11" height="11" fill="#161b22" rx="2"/>
<rect x="218" y="121" width="11" height="11" fill="#161b22" rx="2"/>
<rect x="232" y="25" width="11" height="11" fill="#161b22" rx="2"/>
<rect x="232" y="41" width="11" height="11" fill="#161b22" rx="2"/>
<rect x="232" y="57" width="11" height="11" fill="#161b22" rx="2"/>
<rect x="232" y="73" width="11" height="11" fill="#161b22" rx="2"/>
<rect x="232" y="89" width="11" height="11" fill="#161b22" rx="2"/>
<rect x="232" y="105" width="11" height="11" fill="#161b22" rx="2"/>
<rect x="232" y="121" width="11" height="11" fill="#161b22" rx="2"/>
<rect x="246" y="25" width="11" height="11" fill="#161b22" rx="2"/>
<rect x="246" y="41" width="11" height="11" fill="#161b22" rx="2"/>
<rect x="246" y="57" width="11" height="11" fill="#161b22" rx="2"/>
<rect x="246" y="73" width="11" height="11" fill="#161b22" rx="2"/>
<rect x="246" y="89" width="11" height="11" fill="#161b22" rx="2"/>
<rect x="246" y="105" width="11" height="11" fill="#161b22" rx="2"/>
<rect x="246" y="121" width="11" height="11" fill="#161b22" rx="2"/>
<rect x="260" y="25" width="11" height="11" fill="#161b22" rx="2"/>
<rect x="260" y="41" width="11" height="11" fill="#161b22" rx="2"/>
<rect x="260" y="57" width="11" height="11" fill="#161b22" rx="2"/>
<rect x="260" y="73" width="11" height="11" fill="#161b22" rx="2"/>
<rect x="260" y="89" width="11" height="11" fill="#161b22" rx="2"/>
<rect x="260" y="105" width="11" height="11" fill="#161b22" rx="2"/>
<rect x="260" y="121" width="11" height="11" fill="#161b22" rx="2"/>
<rect x="274" y="25" width="11" height="11" fill="#161b22" rx="2"/>
<rect x="274" y="41" width="11" height="11" fill="#161b22" rx="2"/>
<rect x="274" y="57" width="11" height="11" fill="#161b22" rx="2"/>
<rect x="274" y="73" width="11" height="11" fill="#161b22" rx="2"/>
<rect x="274" y="89" width="11" height="11" fill="#161b22" rx="2"/>
<rect x="274" y="105" width="11" height="11" fill="#161b22" rx="2"/>
<rect x="274" y="121" width="11" height="11" fill="#161b22" rx="2"/>
<rect x="288" y="25" width="11" height="11" fill="#161b22" rx="2"/>
<rect x="288" y="41" width="11" height="11" fill="#161b22" rx="2"/>
<rect x="288" y="57" width="11" height="11" fill="#161b22" rx="2"/>
<rect x="288" y="73" width="11" height="11" fill="#161b22" rx="2"/>
<rect x="288" y="89" width="11" height="11" fill="#161b22" rx="2"/>
<rect x="288" y="105" width="11" height="11" fill="#161b22" rx="2"/>
<rect x="288" y="121" width="11" height="11" fill="#161b22" rx="2"/>
<rect x="302" y="25" width="11" height="11" fill="#161b22" rx="2"/>
<rect x="302" y="41" width="11" height="11" fill="#161b22" rx="2"/>
<rect x="302" y="57" width="11" height="11" fill="#161b22" rx="2"/>
<rect x="302" y="73" width="11" height="11" fill="#161b22" rx="2"/>
<rect x="302" y="89" width="11" height="11" fill="#161b22" rx="2"/>
<rect x="302" y="105" width="11" height="11" fill="#161b22" rx="2"/>
<rect x="302" y="121" width="11" height="11" fill="#161b22" rx="2"/>
<rect x="316" y="25" width="11" height="11" fill="#161b22" rx="2"/>
<rect x="316" y="41" width="11" height="11" fill="#161b22" rx="2"/>
<rect x="316" y="57" width="11" height="11" fill="#161b22" rx="2"/>
<rect x="316" y="73" width="11" height="11" fill="#161b22" rx="2"/>
<rect x="316" y="89" width="11" height="11" fill="#161b22" rx="2"/>
<rect x="316" y="105" width="11" height="11" fill="#161b22" rx="2"/>
<rect x="316" y="121" width="11" height="11" fill="#161b22" rx="2"/>
<rect x="330" y="25" width="11" height="11" fill="#161b22" rx="2"/>
<rect x="330" y="41" width="11" height="11" fill="#161b22" rx="2"/>
<rect x="330" y="57" width="11" height="11" fill="#161b22" rx="2"/>
<rect x="330" y="73" width="11" height="11" fill="#161b22" rx="2"/>
<rect x="330" y="89" width="11" height="11" fill="#161b22" rx="2"/>
<rect x="330" y="105" width="11" height="11" fill="#161b22" rx="2"/>
<rect x="330" y="121" width="11" height="11" fill="#161b22" rx="2"/>
<rect x="344" y="25" width="11" height="11" fill="#161b22" rx="2"/>
<rect x="344" y="41" width="11" height="11" fill="#161b22" rx="2"/>
<rect x="344" y="57" width="11" height="11" fill="#161b22" rx="2"/>
<rect x="344" y="73" width="11" height="11" fill="#161b22" rx="2"/>
<rect x="344" y="89" width="11" height="11" fill="#161b22" rx="2"/>
<rect x="344" y="105" width="11" height="11" fill="#161b22" rx="2"/>
<rect x="344" y="121" width="11" height="11" fill="#161b22" rx="2"/>
<rect x="358" y="25" width="11" height="11" fill="#161b22" rx="2"/>
<rect x="358" y="41" width="11" height="11" fill="#161b22" rx="2"/>
<rect x="358" y="57" width="11" height="11" fill="#161b22" rx="2"/>
<rect x="358" y="73" width="11" height="11" fill="#161b22" rx="2"/>
<rect x="358" y="89" width="11" height="11" fill="#161b22" rx="2"/>
<rect x="358" y="105" width="11" height="11" fill="#161b22" rx="2"/>
<rect x="358" y="121" width="11" height="11" fill="#161b22" rx="2"/>
<rect x="372" y="25" width="11" height="11" fill="#161b22" rx="2"/>
<rect x="372" y="41" width="11" height="11" fill="#161b22" rx="2"/>
<rect x="372" y="57" width="11" height="11" fill="#161b22" rx="2"/>
<rect x="372" y="73" width="11" height="11" fill="#161b22" rx="2"/>
<rect x="372" y="89" width="11" height="11" fill="#161b22" rx="2"/>
<rect x="372" y="105" width="11" height="11" fill="#161b22" rx="2"/>
<rect x="372" y="121" width="11" height="11" fill="#161b22" rx="2"/>
<rect x="386" y="25" width="11" height="11" fill="#161b22" rx="2"/>
<rect x="386" y="41" width="11" height="11" fill="#161b22" rx="2"/>
<rect x="386" y="57" width="11" height="11" fill="#161b22" rx="2"/>
<rect x="386" y="73" width="11" height="11" fill="#161b22" rx="2"/>
<rect x="386" y="89" width="11" height="11" fill="#161b22" rx="2"/>
<rect x="386" y="105" width="11" height="11" fill="#161b22" rx="2"/>
<rect x="386" y="121" width="11" height="11" fill="#161b22" rx="2"/>
<rect x="400" y="25" width="11" height="11" fill="#161b22" rx="2"/>
<rect x="400" y="41" width="11" height="11" fill="#161b22" rx="2"/>
<rect x="400" y="57" width="11" height="11" fill="#161b22" rx="2"/>
<rect x="400" y="73" width="11" height="11" fill="#161b22" rx="2"/>
<rect x="400" y="89" width="11" height="11" fill="#161b22" rx="2"/>
<rect x="400" y="105" width="11" height="11" fill="#161b22" rx="2"/>
<rect x="400" y="121" width="11" height="11" fill="#161b22" rx="2"/>
<rect x="414" y="25" width="11" height="11" fill="#161b22" rx="2"/>
<rect x="414" y="41" width="11" height="11" fill="#161b22" rx="2"/>
<rect x="414" y="57" width="11" height="11" fill="#161b22" rx="2"/>
<rect x="414" y="73" width="11" height="11" fill="#161b22" rx="2"/>
<rect x="414" y="89" width="11" height="11" fill="#161b22" rx="2"/>
<rect x="414" y="105" width="11" height="11" fill="#161b22" rx="2"/>
<rect x="414" y="121" width="11" height="11" fill="#161b22" rx="2"/>
<rect x="428" y="25" width="11" height="11" fill="#161b22" rx="2"/>
<rect x="428" y="41" width="11" height="11" fill="#161b22" rx="2"/>
<rect x="428" y="57" width="11" height="11" fill="#161b22" rx="2"/>
<rect x="428" y="73" width="11" height="11" fill="#161b22" rx="2"/>
<rect x="428" y="89" width="11" height="11" fill="#161b22" rx="2"/>
<rect x="428" y="105" width="11" height="11" fill="#161b22" rx="2"/>
<rect x="428" y="121" width="11" height="11" fill="#161b22" rx="2"/>
<rect x="442" y="25" width="11" height="11" fill="#161b22" rx="2"/>
<rect x="442" y="41" width="11" height="11" fill="#161b22" rx="2"/>
<rect x="442" y="57" width="11" height="11" fill="#161b22" rx="2"/>
<rect x="442" y="73" width="11" height="11" fill="#161b22" rx="2"/>
<rect x="442" y="89" width="11" height="11" fill="#161b22" rx="2"/>
<rect x="442" y="105" width="11" height="11" fill="#161b22" rx="2"/>
<rect x="442" y="121" width="11" height="11" fill="#161b22" rx="2"/>
<rect x="456" y="25" width="11" height="11" fill="#161b22" rx="2"/>
<rect x="456" y="41" width="11" height="11" fill="#161b22" rx="2"/>
<rect x="456" y="57" width="11" height="11" fill="#161b22" rx="2"/>
<rect x="456" y="73" width="11" height="11" fill="#161b22" rx="2"/>
<rect x="456" y="89" width="11" height="11" fill="#161b22" rx="2"/>
<rect x="456" y="105" width="11" height="11" fill="#161b22" rx="2"/>
<rect x="456" y="121" width="11" height="11" fill="#161b22" rx="2"/>
<rect x="470" y="25" width="11" height="11" fill="#161b22" rx="2"/>
<rect x="470" y="41" width="11" height="11" fill="#161b22" rx="2"/>
<rect x="470" y="57" width="11" height="11" fill="#161b22" rx="2"/>
<rect x="470" y="73" width="11" height="11" fill="#161b22" rx="2"/>
<rect x="470" y="89" width="11" height="11" fill="#161b22" rx="2"/>
<rect x="470" y="105" width="11" height="11" fill="#161b22" rx="2"/>
<rect x="470" y="121" width="11" height="11" fill="#161b22" rx="2"/>
<rect x="484" y="25" width="11" height="11" fill="#161b22" rx="2"/>
<rect x="484" y="41" width="11" height="11" fill="#161b22" rx="2"/>
<rect x="484" y="57" width="11" height="11" fill="#161b22" rx="2"/>
<rect x="484" y="73" width="11" height="11" fill="#161b22" rx="2"/>
<rect x="484" y="89" width="11" height="11" fill="#161b22" rx="2"/>
<rect x="484" y="105" width="11" height="11" fill="#161b22" rx="2"/>
<rect x="484" y="121" width="11" height="11" fill="#161b22" rx="2"/>
<rect x="498" y="25" width="11" height="11" fill="#161b22" rx="2"/>
<rect x="498" y="41" width="11" height="11" fill="#161b22" rx="2"/>
<rect x="498" y="57" width="11" height="11" fill="#161b22" rx="2"/>
<rect x="498" y="73" width="11" height="11" fill="#161b22" rx="2"/>
<rect x="498" y="89" width="11" height="11" fill="#161b22" rx="2"/>
<rect x="498" y="105" width="11" height="11" fill="#161b22" rx="2"/>
<rect x="498" y="121" width="11" height="11" fill="#161b22" rx="2"/>
<rect x="512" y="25" width="11" height="11" fill="#161b22" rx="2"/>
<rect x="512" y="41" width="11" height="11" fill="#161b22" rx="2"/>
<rect x="512" y="57" width="11" height="11" fill="#161b22" rx="2"/>
<rect x="512" y="73" width="11" height="11" fill="#161b22" rx="2"/>
<rect x="512" y="89" width="11" height="11" fill="#161b22" rx="2"/>
<rect x="512" y="105" width="11" height="11" fill="#161b22" rx="2"/>
<rect x="512" y="121" width="11" height="11" fill="#161b22" rx="2"/>
<rect x="526" y="25" width="11" height="11" fill="#161b22" rx="2"/>
<rect x="526" y="41" width="11" height="11" fill="#161b22" rx="2"/>
<rect x="526" y="57" width="11" height="11" fill="#161b22" rx="2"/>
<rect x="526" y="73" width="11" height="11" fill="#161b22" rx="2"/>
<rect x="526" y="89" width="11" height="11" fill="#161b22" rx="2"/>
<rect x="526" y="105" width="11" height="11" fill="#161b22" rx="2"/>
<rect x="526" y="121" width="11" height="11" fill="#161b22" rx="2"/>
<rect x="540" y="25" width="11" height="11" fill="#161b22" rx="2"/>
<rect x="540" y="41" width="11" height="11" fill="#161b22" rx="2"/>
<rect x="540" y="57" width="11" height="11" fill="#161b22" rx="2"/>
<rect x="540" y="73" width="11" height="11" fill="#161b22" rx="2"/>
<rect x="540" y="89" width="11" height="11" fill="#161b22" rx="2"/>
<rect x="540" y="105" width="11" height="11" fill="#161b22" rx="2"/>
<rect x="540" y="121" width="11" height="11" fill="#161b22" rx="2"/>
<rect x="554" y="25" width="11" height="11" fill="#161b22" rx="2"/>
<rect x="554" y="41" width="11" height="11" fill="#161b22" rx="2"/>
<rect x="554" y="57" width="11" height="11" fill="#161b22" rx="2"/>
<rect x="554" y="73" width="11" height="11" fill="#161b22" rx="2"/>
<rect x="554" y="89" width="11" height="11" fill="#161b22" rx="2"/>
<rect x="554" y="105" width="11" height="11" fill="#161b22" rx="2"/>
<rect x="554" y="121" width="11" height="11" fill="#161b22" rx="2"/>
<rect x="568" y="25" width="11" height="11" fill="#161b22" rx="2"/>
<rect x="568" y="41" width="11" height="11" fill="#161b22" rx="2"/>
<rect x="568" y="57" width="11" height="11" fill="#161b22" rx="2"/>
<rect x="568" y="73" width="11" height="11" fill="#161b22" rx="2"/>
<rect x="568" y="89" width="11" height="11" fill="#161b22" rx="2"/>
<rect x="568" y="105" width="11" height="11" fill="#161b22" rx="2"/>
<rect x="568" y="121" width="11" height="11" fill="#161b22" rx="2"/>
<rect x="582" y="25" width="11" height="11" fill="#161b22" rx="2"/>
<rect x="582" y="41" width="11" height="11" fill="#161b22" rx="2"/>
<rect x="582" y="57" width="11" height="11" fill="#161b22" rx="2"/>
<rect x="582" y="73" width="11" height="11" fill="#161b22" rx="2"/>
<rect x="582" y="89" width="11" height="11" fill="#161b22" rx="2"/>
<rect x="582" y="105" width="11" height="11" fill="#161b22" rx="2"/>
<rect x="582" y="121" width="11" height="11" fill="#161b22" rx="2"/>
<rect x="596" y="25" width="11" height="11" fill="#161b22" rx="2"/>
<rect x="596" y="41" width="11" height="11" fill="#161b22" rx="2"/>
<rect x="596" y="57" width="11" height="11" fill="#161b22" rx="2"/>
<rect x="596" y="73" width="11" height="11" fill="#161b22" rx="2"/>
<rect x="596" y="89" width="11" height="11" fill="#161b22" rx="2"/>
<rect x="596" y="105" width="11" height="11" fill="#161b22" rx="2"/>
<rect x="596" y="121" width="11" height="11" fill="#161b22" rx="2"/>
<rect x="610" y="25" width="11" height="11" fill="#161b22" rx="2"/>
<rect x="610" y="41" width="11" height="11" fill="#161b22" rx="2"/>
<rect x="610" y="57" width="11" height="11" fill="#161b22" rx="2"/>
<rect x="610" y="73" width="11" height="11" fill="#161b22" rx="2"/>
<rect x="610" y="89" width="11" height="11" fill="#161b22" rx="2"/>
<rect x="610" y="105" width="11" height="11" fill="#161b22" rx="2"/>
<rect x="610" y="121" width="11" height="11" fill="#161b22" rx="2"/>
<rect x="624" y="25" width="11" height="11" fill="#161b22" rx="2"/>
<rect x="624" y="41" width="11" height="11" fill="#161b22" rx="2"/>
<rect x="624" y="57" width="11" height="11" fill="#161b22" rx="2"/>
<rect x="624" y="73" width="11" height="11" fill="#161b22" rx="2"/>
<rect x="624" y="89" width="11" height="11" fill="#161b22" rx="2"/>
<rect x="624" y="105" width="11" height="11" fill="#161b22" rx="2"/>
<rect x="624" y="121" width="11" height="11" fill="#161b22" rx="2"/>
<rect x="638" y="25" width="11" height="11" fill="#161b22" rx="2"/>
<rect x="638" y="41" width="11" height="11" fill="#161b22" rx="2"/>
<rect x="638" y="57" width="11" height="11" fill="#161b22" rx="2"/>
<rect x="638" y="73" width="11" height="11" fill="#161b22" rx="2"/>
<rect x="638" y="89" width="11" height="11" fill="#161b22" rx="2"/>
<rect x="638" y="105" width="11" height="11" fill="#161b22" rx="2"/>
<rect x="638" y="121" width="11" height="11" fill="#161b22" rx="2"/>
<rect x="652" y="25" width="11" height="11" fill="#161b22" rx="2"/>
<rect x="652" y="41" width="11" height="11" fill="#161b22" rx="2"/>
<rect x="652" y="57" width="11" height="11" fill="#161b22" rx="2"/>
<rect x="652" y="73" width="11" height="11" fill="#161b22" rx="2"/>
<rect x="652" y="89" width="11" height="11" fill="#161b22" rx="2"/>
<rect x="652" y="105" width="11" height="11" fill="#161b22" rx="2"/>
<rect x="652" y="121" width="11" height="11" fill="#161b22" rx="2"/>
<rect x="666" y="25" width="11" height="11" fill="#161b22" rx="2"/>
<rect x="666" y="41" width="11" height="11" fill="#161b22" rx="2"/>
<rect x="666" y="57" width="11" height="11" fill="#161b22" rx="2"/>
<rect x="666" y="73" width="11" height="11" fill="#161b22" rx="2"/>
<rect x="666" y="89" width="11" height="11" fill="#161b22" rx="2"/>
<rect x="666" y="105" width="11" height="11" fill="#161b22" rx="2"/>
<rect x="666" y="121" width="11" height="11" fill="#161b22" rx="2"/>
<rect x="680" y="25" width="11" height="11" fill="#161b22" rx="2"/>
<rect x="680" y="41" width="11" height="11" fill="#161b22" rx="2"/>
<rect x="680" y="57" width="11" height="11" fill="#161b22" rx="2"/>
<rect x="680" y="73" width="11" height="11" fill="#161b22" rx="2"/>
<rect x="680" y="89" width="11" height="11" fill="#161b22" rx="2"/>
<rect x="680" y="105" width="11" height="11" fill="#161b22" rx="2"/>
<rect x="680" y="121" width="11" height="11" fill="#161b22" rx="2"/>
<rect x="694" y="25" width="11" height="11" fill="#161b22" rx="2"/>
<rect x="694" y="41" width="11" height="11" fill="#161b22" rx="2"/>
<rect x="694" y="57" width="11" height="11" fill="#161b22" rx="2"/>
<rect x="694" y="73" width="11" height="11" fill="#161b22" rx="2"/>
<rect x="694" y="89" width="11" height="11" fill="#161b22" rx="2"/>
<rect x="694" y="105" width="11" height="11" fill="#161b22" rx="2"/>
<rect x="694" y="121" width="11" height="11" fill="#161b22" rx="2"/>
<rect x="708" y="25" width="11" height="11" fill="#161b22" rx="2"/>
<rect x="708" y="41" width="11" height="11" fill="#161b22" rx="2"/>
<rect x="708" y="57" width="11" height="11" fill="#161b22" rx="2"/>
<rect x="708" y="73" width="11" height="11" fill="#0e4429" rx="2"/>
<rect x="708" y="89" width="11" height="11" fill="#0e4429" rx="2"/>
<rect x="708" y="105" width="11" height="11" fill="#161b22" rx="2"/>
<rect x="708" y="121" width="11" height="11" fill="#161b22" rx="2"/>
<rect x="722" y="25" width="11" height="11" fill="#161b22" rx="2"/>
<rect x="722" y="41" width="11" height="11" fill="#161b22" rx="2"/>
<rect x="722" y="57" width="11" height="11" fill="#161b22" rx="2"/>
<rect x="722" y="73" width="11" height="11" fill="#26a641" rx="2"/>
<rect x="722" y="89" width="11" height="11" fill="#006d32" rx="2"/>
<rect x="722" y="105" width="11" height="11" fill="#39d353" rx="2"/>
<rect x="722" y="121" width="11" height="11" fill="#39d353" rx="2"/>
<rect x="736" y="25" width="11" height="11" fill="#0e4429" rx="2"/>
<rect x="736" y="41" width="11" height="11" fill="#006d32" rx="2"/>
<rect x="736" y="57" width="11" height="11" fill="#26a641" rx="2"/>
<rect x="736" y="73" width="11" height="11" fill="#39d353" rx="2"/>
<rect x="736" y="89" width="11" height="11" fill="#161b22" rx="2"/>
<rect x="736" y="105" width="11" height="11" fill="#006d32" rx="2"/>
<rect x="736" y="121" width="11" height="11" fill="#161b22" rx="2"/>
<rect x="750" y="25" width="11" height="11" fill="#0e4429" rx="2"/>
<rect x="750" y="41" width="11" height="11" fill="#26a641" rx="2"/>
<rect x="750" y="57" width="11" height="11" fill="#0e4429" rx="2"/>
<rect x="750" y="73" width="11" height="11" fill="#161b22" rx="2"/>
<rect x="750" y="89" width="11" height="11" fill="#161b22" rx="2"/>
<rect x="750" y="105" width="11" height="11" fill="#161b22" rx="2"/>
<rect x="750" y="121" width="11" height="11" fill="#161b22" rx="2"/>

  <text x="720" y="20" font-family="JetBrains Mono, monospace" font-size="8" fill="#a9b1d6">Less</text>
<rect x="750" y="12" width="10" height="10" fill="#161b22" rx="2"/>
<rect x="762" y="12" width="10" height="10" fill="#0e4429" rx="2"/>
<rect x="774" y="12" width="10" height="10" fill="#006d32" rx="2"/>
<rect x="786" y="12" width="10" height="10" fill="#26a641" rx="2"/>
<rect x="798" y="12" width="10" height="10" fill="#39d353" rx="2"/>
<text x="820" y="20" font-family="JetBrains Mono, monospace" font-size="8" fill="#a9b1d6">More</text></svg>